<svg width="128" height="128" viewBox="0 0 128 128" fill="none" xmlns="http://www.w3.org/2000/svg">
<path d="M116 3.00046H12C9.64031 2.97645 7.36747 3.88951 5.68019 5.53929C3.99291 7.18908 3.02901 9.44083 3 11.8005V116.22C3.03426 118.577 4.00046 120.823 5.68717 122.469C7.37388 124.114 9.64373 125.025 12 125H116C118.36 125.019 120.631 124.103 122.318 122.452C124.004 120.801 124.968 118.55 125 116.19V11.7705C124.958 9.41775 123.989 7.17673 122.304 5.53452C120.618 3.89231 118.353 2.98164 116 3.00046Z" fill="#0076B2"/>
<path d="M21.0591 48.7305H39.1691V107H21.0591V48.7305ZM30.1191 19.7305C32.1963 19.7305 34.2267 20.3465 35.9537 21.5007C37.6806 22.6549 39.0264 24.2954 39.8208 26.2146C40.6153 28.1338 40.8226 30.2455 40.4167 32.2826C40.0107 34.3197 39.0097 36.1906 37.5402 37.6586C36.0708 39.1267 34.1989 40.1259 32.1615 40.5299C30.124 40.9339 28.0125 40.7246 26.094 39.9283C24.1756 39.1321 22.5364 37.7847 21.3839 36.0567C20.2313 34.3286 19.6172 32.2976 19.6191 30.2205C19.6218 27.4374 20.7292 24.7693 22.6981 22.8023C24.6669 20.8353 27.3361 19.7305 30.1191 19.7305ZM50.5291 48.7305H67.8891V56.7305H68.1291C70.5491 52.1505 76.4491 47.3205 85.2591 47.3205C103.599 47.2805 106.999 59.3505 106.999 75.0005V107H88.8891V78.6505C88.8891 71.9005 88.7691 63.2105 79.4791 63.2105C70.1891 63.2105 68.6091 70.5705 68.6091 78.2105V107H50.5291V48.7305Z" fill="white"/>
</svg>
