<svg width="152" height="46" viewBox="0 0 152 46" fill="none" xmlns="http://www.w3.org/2000/svg">
<g clip-path="url(#clip0_196_160)">
<path d="M0 0.94147H8.50065L8.56234 5.12987C9.4013 3.47624 10.6351 2.20885 12.239 1.32772C13.8429 0.446587 15.7182 -1.46395e-05 17.8403 -1.46395e-05C22.3805 -1.46395e-05 25.502 1.87089 27.1799 5.60062C28.0188 3.87456 29.3266 2.49854 31.1032 1.49671C32.8675 0.494869 34.8786 -0.012085 37.1364 -0.012085C40.7143 -0.012085 43.4409 1.07424 45.3409 3.23483C47.2286 5.39542 48.1786 8.55784 48.1786 12.7342V31.0207H39.4435V14.3878C39.4435 9.86144 37.6916 7.60429 34.2 7.60429C32.3494 7.60429 30.9305 8.23195 29.9435 9.48726C28.9565 10.7426 28.463 12.529 28.463 14.8586V31.0207H19.7279V14.3275C19.7279 9.84937 18.0007 7.60429 14.5461 7.60429C12.6955 7.60429 11.2643 8.21988 10.2649 9.46312C9.26558 10.7064 8.75974 12.4807 8.75974 14.7982V31.0207H0V0.94147Z" fill="#203664"/>
<path d="M53.0149 0.941485H61.2194L61.4045 5.54028C63.5389 1.84676 66.9688 0 71.7064 0C74.4331 0 76.8636 0.675938 78.9733 2.03988C81.0831 3.40383 82.7363 5.27473 83.9454 7.67673C85.1545 10.0787 85.759 12.8308 85.759 15.9328C85.759 19.0349 85.1175 21.6783 83.8344 24.1044C82.5513 26.5185 80.824 28.4377 78.6526 29.8499C76.4811 31.2621 74.0259 31.9743 71.2993 31.9743C67.1539 31.9743 64.0077 30.4051 61.8363 27.2548V45.481H53.0396V0.941485H53.0149ZM74.7415 21.968C76.2097 20.4109 76.9376 18.4193 76.9376 15.9811C76.9376 13.5429 76.2097 11.5513 74.7415 9.99423C73.2733 8.43716 71.398 7.66466 69.1032 7.66466C66.8084 7.66466 64.9331 8.43716 63.4649 9.99423C61.9967 11.5513 61.2688 13.5429 61.2688 15.9811C61.2688 18.4193 61.9967 20.4109 63.4649 21.968C64.9331 23.5251 66.8084 24.2976 69.1032 24.2976C71.398 24.2976 73.2733 23.5251 74.7415 21.968Z" fill="#203664"/>
<path d="M91.126 7.78537C92.5572 5.38337 94.5435 3.51247 97.0974 2.14853C99.6513 0.796651 102.588 0.108643 105.931 0.108643C107.695 0.108643 109.497 0.313838 111.323 0.724229C113.149 1.13462 114.691 1.70193 115.937 2.402L114.851 9.59591C112.236 8.37681 109.546 7.7733 106.77 7.7733C103.994 7.7733 101.872 8.49752 100.256 9.95802C98.652 11.4185 97.85 13.3981 97.85 15.9208C97.85 18.4435 98.6643 20.4833 100.293 21.9318C101.921 23.3923 104.179 24.1165 107.079 24.1165C108.411 24.1165 109.744 23.9837 111.088 23.7061C112.433 23.4285 113.852 22.9819 115.345 22.3542L116.307 29.4275C114.938 30.1758 113.346 30.7552 111.52 31.1656C109.694 31.576 107.856 31.7812 106.005 31.7812C102.588 31.7812 99.602 31.1414 97.0481 29.862C94.4942 28.5825 92.5201 26.772 91.1136 24.4062C89.7072 22.0525 89.0039 19.2763 89.0039 16.0897C89.0039 12.9032 89.7195 10.1753 91.1507 7.7733L91.126 7.78537Z" fill="#203664"/>
<path d="M152 28.836C152 34.4608 150.532 38.7216 147.596 41.6306C144.659 44.5395 140.341 46 134.641 46C133.148 46 131.643 45.8793 130.113 45.65C128.583 45.4207 127.164 45.1068 125.869 44.7326C124.561 44.3585 123.512 43.936 122.698 43.4653L123.66 36.2714C124.944 37.0197 126.51 37.6232 128.361 38.0698C130.212 38.5164 131.964 38.7458 133.605 38.7458C140.193 38.7458 143.487 35.5833 143.487 29.2464V26.3013C142.438 27.9911 141.044 29.2947 139.292 30.2241C137.54 31.1415 135.542 31.6122 133.296 31.6122C130.557 31.6122 128.127 30.9483 126.005 29.6085C123.87 28.2687 122.205 26.422 120.996 24.0683C119.786 21.7145 119.182 18.9987 119.182 15.9329C119.182 12.867 119.823 10.1874 121.107 7.79746C122.39 5.39546 124.129 3.50042 126.325 2.11234C128.521 0.724249 130.977 0.0241699 133.716 0.0241699C135.801 0.0241699 137.701 0.482842 139.416 1.41226C141.131 2.34167 142.475 3.65734 143.487 5.39546L143.61 0.965655H151.988V28.8602L152 28.836ZM141.513 9.8132C140.07 8.25613 138.182 7.48363 135.85 7.48363C133.518 7.48363 131.692 8.25613 130.249 9.8132C128.805 11.3703 128.077 13.3619 128.077 15.8001C128.077 18.2383 128.805 20.2299 130.249 21.787C131.692 23.344 133.568 24.1165 135.85 24.1165C138.133 24.1165 140.07 23.344 141.513 21.787C142.957 20.2299 143.684 18.2383 143.684 15.8001C143.684 13.3619 142.957 11.3703 141.513 9.8132Z" fill="#203664"/>
</g>
<defs>
<clipPath id="clip0_196_160">
<rect width="152" height="46" fill="$white"/>
</clipPath>
</defs>
</svg>
